<svg id="Layer_1" data-name="Layer 1" xmlns="http://www.w3.org/2000/svg" viewBox="0 0 492 492"><defs><style>.cls-1{fill:#7b7b7b;}</style></defs><title>basket</title><path class="cls-1" d="M414,80.54c-3.33-3.24-7.22-7-11.28-10.42-.19-.16-.41-.31-.6-.48l0,0,0,0A233.15,233.15,0,0,0,264.36,11.73l-.52-.06-.31,0A236.93,236.93,0,0,0,78.34,80.4c-1.08,1.08-2.14,2.17-3.14,3.38A237.21,237.21,0,0,0,9.33,265.39c0,.2.06.39.07.59a.71.71,0,0,0,0,.14,233,233,0,0,0,57.9,138.29A157.92,157.92,0,0,0,78.09,416.1c40.31,40.39,93.73,66.61,150.34,70.56.29,0,.57,1.81.85,1.81h0c5.65,0,11.29-1.14,16.93-1.14,59.17,0,116.71-23.15,159.7-62.92a103.26,103.26,0,0,0,7.78-7.69A238.32,238.32,0,0,0,414,80.54Zm47.29,139.55A237.18,237.18,0,0,0,300.07,277.3q-15.85-17.35-32.47-34.64A1695.14,1695.14,0,0,0,397.25,94.4c.93.8,1.81,1.59,2.57,2.34C433.16,130.15,452.45,173.57,461.31,220.09ZM77.93,381.33A210,210,0,0,1,33.49,276.47c1.37,0,2.75.16,4.13.16a237,237,0,0,0,164.91-66.81c10.18,9.79,18.93,18.35,27,26.41,2.12,2.09,4.24,4.19,6.32,6.3A1714.49,1714.49,0,0,1,77.93,381.33ZM218.14,193.2a236.75,236.75,0,0,0,56.5-157.44,211.52,211.52,0,0,1,105,44.17,1671.13,1671.13,0,0,1-127.9,146.36c-2.06-2.09-4.08-4.21-6.15-6.24C237.42,211.89,228.51,203.18,218.14,193.2ZM251.79,33.9a214.16,214.16,0,0,1-50.27,143.66c-32.93-30.76-66.69-60-100.71-87.09A214.21,214.21,0,0,1,245.88,33.79C247.8,33.79,249.8,33.85,251.79,33.9Zm-166.9,73c34.1,27.13,68,56.39,101,87.25A214,214,0,0,1,31.64,253.71,214.36,214.36,0,0,1,84.89,106.92Zm8,291.67A1738.12,1738.12,0,0,0,251.63,258.94c10.81,11.24,21.5,22.57,31.83,33.88a236.81,236.81,0,0,0-66.12,168A213,213,0,0,1,94.22,400C93.8,399.56,93.31,399,92.87,398.59Zm147.34,64a214,214,0,0,1,58.54-152.68c29.87,33.61,58.21,68.2,84.49,103.15A213.81,213.81,0,0,1,240.21,462.62Zm160.66-64c-26.63-35.38-55.32-70.38-85.55-104.37A214.18,214.18,0,0,1,463.38,243C461.33,301,441.63,357.08,400.87,398.62Z"/></svg>