<svg id="Layer_1" data-name="Layer 1" xmlns="http://www.w3.org/2000/svg" viewBox="0 0 492 492"><defs><style>.cls-1{fill:#ffc425;}.cls-2{fill:#00553d;}</style></defs><title>ds_logo</title><path class="cls-1" d="M467.6,278.79,423.06,28.63c-3.39-17.32-18.24-23.24-29.27-20.7l-263,45.63c-8.06,1.69-12.73,3.81-19.94,9.72,0,0-66.6,63-76.35,72.68-9.76,10.14-16.12,23.24-13.15,42.26l50.9,286.49c3.82,17.75,19.09,22.82,30.12,21.13S372.58,438.93,386.16,436c14-3,27.57-11.84,37.33-30.43l39.87-85.78C470.57,303.72,471,299.91,467.6,278.79Z"/><path class="cls-2" d="M326.35,64.23c-7.21,5.91-28,12.68-46.67,15.63-18.24,2.54-27.57,0-19.93-5.91,7.21-5.92,28-13.1,46.66-15.64C324.65,55.78,333.56,58.31,326.35,64.23Z"/><path class="cls-2" d="M283.93,53.24,225.39,71.41h-42l58.12-18.17Z"/><path class="cls-2" d="M127.4,67.18,185.09,57,167.27,75.21l-58.54,9.72Z"/><path class="cls-2" d="M103.21,459.31l-11.45-63.8,63.63-11,11.45,63.39Z"/><path class="cls-2" d="M154.12,365.93l-41.57-49.44,22.06-60.43,41.57,49.44Z"/><path class="cls-2" d="M213.94,263.25a36.89,36.89,0,1,1,30.11-42.68C247.45,240.86,234.3,259.87,213.94,263.25Z"/><path class="cls-2" d="M296.65,219.73,247,160.15l76.35-13.1Z"/><path class="cls-2" d="M324.22,97.19,267.38,98l73.39-22Z"/><path class="cls-2" d="M415.43,60l3,65.92L400.16,81.13Z"/><path class="cls-2" d="M395.07,117.47c3.82-5.5,9.33,4.22,12.72,22.39s3,37.61-.85,43.1c-3.81,5.92-9.33-4.22-12.3-22.39C391.25,142.4,391.67,123,395.07,117.47Z"/><path class="cls-2" d="M395.06,191.42l15.27,43.1,3,62.11L398,254.38Z"/><path class="cls-2" d="M414.16,392.13l-10.61-60.85L415,308.46,425.61,368Z"/></svg>