<svg id="Layer_1" data-name="Layer 1" xmlns="http://www.w3.org/2000/svg" viewBox="0 0 492 492"><defs><style>.cls-1{fill:#6a6a6a;}</style></defs><title>football</title><path class="cls-1" d="M483.69,223.43a235.69,235.69,0,0,0-21.48-79.15.06.06,0,0,1,0,0,234.92,234.92,0,0,0-46.82-66.62C411.43,73.58,407.6,70,404,67a238,238,0,0,0-36.23-26.44l0,0a229.31,229.31,0,0,0-21.56-11.3,234.43,234.43,0,0,0-66-19.26c-5.27-.71-10.53-1.27-15.89-1.67C259.77,8,255,9,251.06,8.91c-15.12-.32-30.34-3.09-45.19,4.54h-.11c-30.21,0-58.67,13.17-84.53,29.34-12.49,7.69-24.47,16.44-35.58,24.07h0l0,1.79s-.06.93-.09,1v.46c-2.41,2.16-4.8,4.61-7.11,6.93-1.08,1.08-2.22,2.35-3.23,3.59-17.94,18.57-33.74,39.67-44.59,62.58-10.67,22.2-14.66,45.89-22.29,70.29h0c0,13.39-1.28,27.18-.79,41.25l1.06,8.13A232,232,0,0,0,23.94,331s.15,0,.16.06.11.09.13.13.06.09.07.13l0,0c1.89,5.15,4.14,10.46,6.87,16.19a237.91,237.91,0,0,0,36.65,55.52c.51.6,1,1.18,1.58,1.74,2.6,3.09,5.52,6.26,8.65,9.4a239,239,0,0,0,50.16,38.35c.84.49,1.69,1,2.54,1.4l.09.06A236.61,236.61,0,0,0,229,483.2c5.6.43,11.27.64,17,.64,2.84,0,5.69-.06,8.53-.16l.09,0a236,236,0,0,0,77.26-15.45c3.78-1.45,7.55-3,11.34-4.66.36-.17.72-.35,1.07-.55a234.12,234.12,0,0,0,63.11-41.56c.3-.25.61-.56.91-.84a75.43,75.43,0,0,0,5.92-5.57l-.65-.67C443,385,466,348.4,473.65,308.57h0V311h2a227.37,227.37,0,0,0,5.54-25.28c0-.14.2-.88.22-1a235.61,235.61,0,0,0,2.6-55.55C483.93,227.36,483.85,225.21,483.69,223.43ZM399.12,93.72a212.91,212.91,0,0,1,39.56,54.87l-44.74,71.93-63.57,6.19-60-64.56,8.05-57.35,88.39-36a10.46,10.46,0,0,0,1.19-.72,217.85,217.85,0,0,1,21,16.22A136.47,136.47,0,0,1,399.12,93.72ZM126.76,337.93l-83-20.41A209.08,209.08,0,0,1,32,261.42l-.45-7.75A221.89,221.89,0,0,1,32.78,223L108,192.33,157,215.75l10.36,86.07Zm6.54-275.1A211.31,211.31,0,0,1,203.39,34.9l52.94,62.67-8.5,60.54-80.4,37.26-49.33-23.6-6.76-92.1a9.07,9.07,0,0,0-.24-1A206.46,206.46,0,0,1,133.3,62.83Zm14.11,374-6-81.31,40.68-36.18,87.47,17.28,18.67,49L241.56,460.9c-3.62-.08-7.24-.24-10.84-.51A210.85,210.85,0,0,1,147.41,436.84Zm253.94-41.45-93.71-23-17.22-45.27,43.35-77.7,63.83-6.22,54.91,65A213.49,213.49,0,0,1,401.35,395.39Z"/></svg>