<svg id="Layer_1" data-name="Layer 1" xmlns="http://www.w3.org/2000/svg" viewBox="0 0 492 492"><defs><style>.cls-1{fill:#7b7b7b;}</style></defs><title>gaming</title><path class="cls-1" d="M116.19,195.31H78.6c6.35-86.54,78.79-155,166.92-155a168.06,168.06,0,0,1,157,109.3,19,19,0,0,0,35.68-13.2,205.43,205.43,0,0,0-398.1,69.13A76.1,76.1,0,0,0,2.07,271.39v64.66a76.17,76.17,0,0,0,76.08,76.08h38a19,19,0,0,0,19-19V214.33A19,19,0,0,0,116.19,195.31Zm-19,178.78h-19a38.08,38.08,0,0,1-38-38V271.39a38.08,38.08,0,0,1,38-38h19Z"/><path class="cls-1" d="M412.9,195.31h-38a19,19,0,0,0-19,19V413.09a19,19,0,0,1-19,19h-58v.6a38,38,0,1,0,0,36.83v.6h58a57.11,57.11,0,0,0,57.05-57.05v-1h19A76.16,76.16,0,0,0,489,336.05V271.39A76.16,76.16,0,0,0,412.9,195.31Zm38,140.74a38.08,38.08,0,0,1-38,38h-19V233.35h19a38.08,38.08,0,0,1,38,38Z"/></svg>