<svg id="Layer_1" data-name="Layer 1" xmlns="http://www.w3.org/2000/svg" viewBox="0 0 492 492"><defs><style>.cls-1{fill:none;stroke:#c4c4c4;stroke-miterlimit:10;stroke-width:30px;}.cls-2{fill:#c4c4c4;}</style></defs><title>info</title><circle class="cls-1" cx="248.94" cy="247.33" r="220.04"/><path class="cls-2" d="M265.5,183.72l4,2.74q-2.33,27.61-2.32,70.18v47.63q0,4.65.84,29.83t1.79,29.4a12.31,12.31,0,0,0,2.85,6.11A8.75,8.75,0,0,0,277.3,372q2.74.52,22.77,1.79l1.89,1.68v8.85l-1.68,1.9q-26.36-1.69-50.8-1.68-24.24,0-50.58,1.68l-1.9-1.9v-8.85l1.9-1.68q20.44-1.27,23.08-1.9a9.66,9.66,0,0,0,4.64-2.64,11.26,11.26,0,0,0,2.73-6.11q.74-4.11,1.69-27.19t1-34.88V259.59q0-8.43-.84-23t-1.37-17.92a6.61,6.61,0,0,0-3.27-4.95q-2.74-1.58-11-1.58l-17.7-.21-1.9-1.69v-9.06l1.68-1.69Q237.89,194.68,265.5,183.72ZM247.59,89.5a23.75,23.75,0,0,1,23.81,23.82A22.73,22.73,0,0,1,264.45,130a23,23,0,0,1-16.86,7,23.24,23.24,0,0,1-16.76-6.85,22.44,22.44,0,0,1-7.06-16.76,22.79,22.79,0,0,1,7.06-16.86A23.06,23.06,0,0,1,247.59,89.5Z"/></svg>