<svg id="Layer_1" data-name="Layer 1" xmlns="http://www.w3.org/2000/svg" viewBox="0 0 492 492"><defs><style>.cls-1{fill:#fff;}</style></defs><title>joystick</title><path class="cls-1" d="M263.74,239.67,241.35,295.5l1.53,1.1c16.9-18.32,33.93-36.52,50.52-55.12,1.78-2,1.29-6.32,1.29-9.57,0-9.26-4.52-14.32-14.1-14.57-10.71-.29-21.5-.14-32.12-1.37-17.37-2-26.87-12-29.42-29.26-1.48-10,2.39-16.76,12.2-16.93,26.48-.45,53-.28,79.46.8,11.33.46,18.21,9.28,23.43,18.65,18.1,32.54,35.72,65.35,54.26,97.63,5.76,10,12.79,19.87,21.16,27.77,12.86,12.15,27.7,12.1,43.5,2.4,15.07-9.25,21.08-22.3,17.14-39.25-12.65-54.53-25.71-109-38.3-163.52-3-13-9.88-23-19.58-31.94C401.07,72,390.73,60.67,380,49.78l1.18-4.26c4.27-.43,8.86-2.09,12.77-1.1,29,7.32,48.75,24.9,56.08,54.43,10.41,42,20.34,84.07,30.22,126.18,4,17,7.75,34,10.79,51.14,4.39,24.71-6.51,47.88-27.42,60.11-21.94,12.84-47.47,11.81-66.83-4.17-9.7-8-17.72-18-28.47-29.19-19.19,20-38.63,39.88-57.65,60.19-7.6,8.12-5.95,20.13,4.77,25.52,14.46,7.28,18.33,18.22,19.06,33.34.51,10.6,5.09,21.13,8.68,31.4,2,5.79,3.36,10-4.91,10Q245.14,463.27,152,463c-.3,0-.6-.28-1.83-.89.32-2.13.15-4.82,1.13-7,7.58-17,9.37-34.87,8-53.18-.56-7.19,1.77-10.61,9.52-12,16.06-3,31.87-7.29,48.12-11.95-43.52-12.7-73.73-40-92-82.36-6.42,8.94-11.73,17-17.72,24.57C77.38,357.72,20.32,351.38,3.73,308-.22,297.66-1,284.53,1.28,273.65c12.2-57.71,25.49-115.2,39.14-172.6,8.23-34.6,32-52.87,68.63-54.16-2.94,9-7.33,16.19-15.91,20.64-19,9.91-30.52,25.74-35.27,46.53-11.93,52.3-24,104.57-35.64,156.93-6.05,27.19,5.63,46.58,30.74,51.87,16.59,3.5,29-4.22,38-17a305,305,0,0,0,22.7-37.95C123.73,248,139,239,161.35,239.49,194.85,240.18,228.37,239.67,263.74,239.67Z"/><path class="cls-1" d="M299.05,44.26c0,6.35.11,12.7,0,19.05-.25,11.45-6.47,19.6-15.54,25.43-8,5.12-25.67-5.48-26.64-17.37-1.44-17.52-.91-35.26-.38-52.88.2-6.69,5-10.69,12.21-10.66,4.35,0,8.69,0,13,0,10.21.11,16.68,6.1,17.46,16.38a93.1,93.1,0,0,1-.1,10c-.11,3.34-.33,6.68-.5,10Z"/><path class="cls-1" d="M237.08,51c-.81,8.08-1.09,16.16-2.56,24-1.76,9.44-7.34,15.51-17.61,16.3-11.92.91-21.15-3-22.83-13.25-2.42-14.68-3-29.83-2.67-44.75.18-8.2,14-19.24,21-19.25,10,0,21.56,9.47,23.47,20C236.85,39.63,236.71,45.39,237.08,51Z"/><path class="cls-1" d="M318.5,53.24c.9-10.67,1.27-19.4,2.45-28,1.33-9.73,7.88-13.58,17.19-13,8.48.56,17.58-.51,18.2,12.78.6,13,4.26,25.88,4.53,38.86.15,6.77-2.38,15.27-6.86,20-4.31,4.55-13,7.7-19.17,6.87-5.08-.69-11.49-7.32-13.33-12.68C318.66,69.8,319.21,60.35,318.5,53.24Z"/><path class="cls-1" d="M138.28,117.54l38.25,37.51-40.88,38.57c-6.51-17-20-29.36-36.22-37.5Z"/><path class="cls-1" d="M172.32,57c.61,7.55,1.55,17.47-8,25.55-14.23,12-29.42,9.45-33.7-8.72-2.95-12.54-1.63-26.48-.06-39.54,1-8.53,11.1-11.77,24.4-10.29,10.46,1.16,16.49,6.59,17.31,16.15C172.65,44.77,172.32,49.48,172.32,57Z"/><path class="cls-1" d="M380.57,156.49c13.47,13.58,14.91,18.64,7.66,25.82-5.34,5.29-10.66,6.23-16.31.34C364.31,174.72,365.48,170.88,380.57,156.49Z"/><path class="cls-1" d="M357.82,135.41c-13.6,13.5-18.64,14.74-26,6.4-5.58-6.31-3.24-11.58,2.26-16.23C341.33,119.43,346.76,121.73,357.82,135.41Z"/><path class="cls-1" d="M367.25,135.73c9.28-17.27,13.13-17.53,30.84-2.06C384.83,150.89,379.37,151.26,367.25,135.73Z"/></svg>