<svg xmlns="http://www.w3.org/2000/svg" viewBox="0 0 382.38 81.94"><defs><style>.cls-1{fill:#feb700;}.cls-2{fill:#004b32;}.cls-3{fill:#fff;}</style></defs><title>logo_1</title><path class="cls-1" d="M366.71,44.33l-5.25-29.6A2.91,2.91,0,0,0,358,12.26l-31,5.42a4.54,4.54,0,0,0-2.33,1.17s-7.87,7.45-9,8.63a5.51,5.51,0,0,0-1.54,5l6,33.9a3.07,3.07,0,0,0,3.57,2.48c1.29-.19,31.84-5.56,33.44-5.89a6.55,6.55,0,0,0,4.4-3.61l4.71-10.15C367.05,47.28,367.08,46.84,366.71,44.33Z"/><path class="cls-2" d="M350.06,18.62a13.77,13.77,0,0,1-5.48,1.83c-2.17.31-3.23,0-2.36-.71a13.87,13.87,0,0,1,5.48-1.83C349.87,17.6,350.93,17.92,350.06,18.62Z"/><polygon class="cls-2" points="345.07 17.32 338.18 19.45 333.21 19.42 340.06 17.3 345.07 17.32"/><polygon class="cls-2" points="326.59 18.95 333.4 17.75 331.32 19.92 324.41 21.04 326.59 18.95"/><rect class="cls-2" x="323.02" y="57.1" width="7.63" height="7.63" transform="translate(-5.61 57.76) rotate(-10.01)"/><polygon class="cls-2" points="329.77 54.29 324.87 48.45 327.46 41.3 332.37 47.14 329.77 54.29"/><path class="cls-2" d="M336.82,42.17a4.35,4.35,0,1,1,3.53-5A4.36,4.36,0,0,1,336.82,42.17Z"/><polygon class="cls-2" points="346.58 36.98 340.68 29.97 349.69 28.38 346.58 36.98"/><polygon class="cls-2" points="349.8 22.48 343.08 22.61 351.74 20 349.8 22.48"/><polygon class="cls-2" points="360.54 18.08 360.9 25.91 358.77 20.6 360.54 18.08"/><path class="cls-2" d="M358.17,24.88c.44-.67,1.1.52,1.48,2.66s.33,4.43-.11,5.1-1.1-.52-1.47-2.66S357.73,25.55,358.17,24.88Z"/><polygon class="cls-2" points="358.13 33.67 359.98 38.73 360.33 46.12 358.48 41.1 358.13 33.67"/><polygon class="cls-2" points="360.42 57.39 359.15 50.22 360.51 47.49 361.75 54.56 360.42 57.39"/><path class="cls-3" d="M25.17,54.63H14.7V26.23H25.17c6,0,18.84-.62,18.84,14.24S31.19,54.63,25.17,54.63ZM26,30.51H21.58V50.32H26c3.58,0,10.62.68,10.62-9.85S29.61,30.51,26,30.51Z"/><path class="cls-3" d="M59.93,55.08c-6.07-.09-11.58-1-11.58-6.92,0-6.75,9.28-6.47,16.36-6.47,0-3.34,0-4.85-6.22-4.85a50.56,50.56,0,0,0-8.46.78v-4a58.63,58.63,0,0,1,8.85-.78c6,0,12.62.54,12.62,7.13V54.55A98.56,98.56,0,0,1,59.93,55.08Zm4.78-9.69c-.86,0-3.2,0-3.92,0-2.82,0-5.4.26-5.4,3.11s2.58,2.91,5.4,2.91a31.15,31.15,0,0,0,3.92-.24Z"/><path class="cls-3" d="M118.42,55a52.85,52.85,0,0,1-9.23-.86v-4a41.38,41.38,0,0,0,8.18,1c2.54,0,6.08-.49,6.08-2.56s-2.59-2.12-6.6-2.89c-1.39-.29-7.85-1.26-7.85-6.27,0-5.33,6.51-6.6,11.1-6.6a62,62,0,0,1,8.8.62V37.3a48.76,48.76,0,0,0-7.46-.7c-2.15,0-5.5.33-5.5,2.32s3.68,2.28,6.12,2.68c3.2.53,8.56,1.63,8.56,6.2S125.84,55,118.42,55Z"/><path class="cls-3" d="M152.87,54.63,143.1,43.86V54.63h-6.79V26.16h6.79V42.68l10-9.41h8.13L150,43.17l11.69,11.46Z"/><path class="cls-3" d="M283.92,54.63h-6.79V26.16h6.79Z"/><path class="cls-3" d="M95.56,54.63V40.76c0-1.1-.15-3.56-3.59-3.56-2.39,0-4.54.27-6.26.43v17h-6.8V33.92a144.07,144.07,0,0,1,15.73-1c3.6.07,7.71,1.75,7.71,6.67v15Z"/><path class="cls-3" d="M250.19,53.86a20.78,20.78,0,0,1-6.6.89,28.58,28.58,0,0,1-3.69-.24V63h-6.79V33.24c2.06-.08,6.32-.29,9-.29,3.59,0,6.61.29,9.47,1.67,4.11,2,5.28,5.48,5.28,8.86C256.85,47.71,255,52.11,250.19,53.86ZM243.44,37a26.2,26.2,0,0,0-3.54.16V50.35a22,22,0,0,0,3.4.25c5.16,0,6.63-2.93,6.63-6.71C249.93,39.79,248.56,37,243.44,37Z"/><path class="cls-3" d="M163.1,44.15c0-7,4.22-11.36,12.82-11.36,9.38,0,12.53,4.2,12.34,12.74h-18c.43,4.8,4.59,5.78,8.8,5.78a40.15,40.15,0,0,0,7.22-.73v3.66a50.56,50.56,0,0,1-8.9.85C169.51,55.09,163.1,52.33,163.1,44.15Zm12.6-7.66c-3.87,0-5.42,2.56-5.42,5.46h10.83C181.11,39.22,180.19,36.49,175.7,36.49Z"/><path class="cls-3" d="M262.5,54.64V35.58h6.79V54.64Z"/><path class="cls-3" d="M262.5,32.3V26.16h6.79V32.3Z"/><path class="cls-3" d="M203.4,53.8V49.22a58.27,58.27,0,0,0,9.93,1.19c2.92,0,7.67-.68,7.67-3.86,0-5.66-17.84-1.47-17.84-11.55,0-6.69,6.62-8.77,14-8.77a47.93,47.93,0,0,1,8.63.82v4.4a45.93,45.93,0,0,0-8-.77c-2.58,0-7.43.61-7.43,3.62,0,6.29,18,.92,18,11.73,0,6.72-7.9,8.79-14.43,8.79A53.56,53.56,0,0,1,203.4,53.8Z"/></svg>