<svg xmlns="http://www.w3.org/2000/svg" viewBox="0 0 431.4 127.71"><defs><style>.cls-1,.cls-3{fill:#fff;}.cls-2{fill:#dc5f11;}.cls-3{font-size:27px;font-family:Helvetica;}.cls-4{letter-spacing:-0.05em;}</style></defs><title>logo_2</title><path class="cls-1" d="M288.45,34.23l-1.33-2.07h-.67v2.07h-1.13V28.69h2c1.26,0,2.08.46,2.08,1.71a1.54,1.54,0,0,1-1.1,1.51v0l1.6,2.28Zm-1.29-4.74h-.71v1.86h.71c.67,0,1-.22,1-.93S287.83,29.49,287.16,29.49Z"/><path class="cls-1" d="M281.31,31.72a5.95,5.95,0,1,0,5.95-5.94A6,6,0,0,0,281.31,31.72Zm1.16,0a4.79,4.79,0,1,1,4.79,4.79A4.79,4.79,0,0,1,282.47,31.72Z"/><path class="cls-2" d="M221.74,24.68,216.63,19l.57-.72,4-4.53a4.86,4.86,0,0,0,1.23-2.91,4.22,4.22,0,0,0-4.15-3.93,3.63,3.63,0,0,0-3,1.55l-2.86,3.92-.61.77-.6-.77-2.86-3.92a3.63,3.63,0,0,0-3-1.55,4.21,4.21,0,0,0-4.14,3.93,4.81,4.81,0,0,0,1.23,2.91l4,4.53.56.72L202,24.68a4.65,4.65,0,0,0-1.12,2.74,3.75,3.75,0,0,0,4,3.93,3.86,3.86,0,0,0,3.36-1.79L211.88,25l3.64,4.54a3.83,3.83,0,0,0,3.36,1.79,3.75,3.75,0,0,0,4-3.93A4.65,4.65,0,0,0,221.74,24.68Z"/><path class="cls-1" d="M224.94,63.66a75.93,75.93,0,0,1-7.72-.28c-.84-.2-1.14-.37-1.39-.83a4,4,0,0,1-.23-1.95c0-.12,0-.23,0-.35v-.47a12.6,12.6,0,0,1,.23-1.53l.26-1.57,1-5.17a35.32,35.32,0,0,1,1-4.23,6.17,6.17,0,0,1,1.28-2.5,3.32,3.32,0,0,1,2-1,76.38,76.38,0,0,1,7.83-.28,76.08,76.08,0,0,1,7.76.27,1.83,1.83,0,0,1,1.4.92,4.11,4.11,0,0,1,.16,2.72,5.25,5.25,0,0,1-1.4,2.92,3.21,3.21,0,0,1-2,1c-1,.21-6,.32-7.89.32h-1.23c-1.72,0-3.36,1.75-3.81,4.07l-.38,2h4.61c1.93,0,7.71-.08,9.72-.22a8.38,8.38,0,0,0,6.32-2.67,11.61,11.61,0,0,0,3.34-6.84l.07-.33v0c.4-2.69.37-4.6-.94-6.92a5.88,5.88,0,0,0-5.29-3.14c-2-.15-7.67-.23-9.63-.23s-7.53.08-9.62.23h0a8.68,8.68,0,0,0-6.13,3,14.11,14.11,0,0,0-3.65,7.13l-.37,1.53c-.34,1.37-.52,2.17-.92,4.17s-.52,2.92-.71,4.18l-.22,1.54c-.5,3.2-.22,5.37,1,7.44a5.77,5.77,0,0,0,5.17,3.18c2,.15,18.47.19,20.4.19,3.23,0,4-4.11,4.41-6.22Z"/><path class="cls-2" d="M20.74,62.9A75.57,75.57,0,0,1,13,62.62c-.84-.2-1.14-.37-1.4-.83a3.94,3.94,0,0,1-.23-1.94c0-.13,0-.24,0-.36V59c0-.09,0-.43.23-1.53l.27-1.57,1-5.17a35.32,35.32,0,0,1,1-4.23A6.17,6.17,0,0,1,15.21,44a3.35,3.35,0,0,1,2-1A76.47,76.47,0,0,1,25,42.71,76.21,76.21,0,0,1,32.8,43a1.82,1.82,0,0,1,1.39.92,4,4,0,0,1,.16,2.72A5.25,5.25,0,0,1,33,49.54a3.21,3.21,0,0,1-2,1c-1,.21-6,.32-7.89.32H21.86c-1.72,0-3.36,1.75-3.82,4.07l-.38,2h4.61c1.93,0,7.71-.08,9.72-.22A8.4,8.4,0,0,0,38.32,54a11.66,11.66,0,0,0,3.33-6.84l.08-.33v0c.4-2.69.38-4.6-.94-6.92a5.88,5.88,0,0,0-5.29-3.14c-2-.15-7.67-.23-9.63-.23s-7.53.08-9.61.23h0a8.7,8.7,0,0,0-6.14,3,14.11,14.11,0,0,0-3.65,7.13L6.1,48.42c-.33,1.37-.52,2.17-.91,4.17s-.53,2.92-.72,4.18l-.22,1.54c-.49,3.2-.21,5.37,1,7.44a5.76,5.76,0,0,0,5.16,3.18c2,.15,18.48.19,20.41.19,3.23,0,4-4.11,4.4-6.22Z"/><path class="cls-1" d="M182.15,37.53h0c-6.68.26-8.3,6.89-8.55,8.21a9.68,9.68,0,0,0,.33,6,5.68,5.68,0,0,0,4.3,3.14c1.72.37,6.2.81,10.15,1.17l.19,0c2.68.25,5.72.53,6.38.69.87.2,1.38.49,1.55.86a2.5,2.5,0,0,1,0,1.41c-.46,2.36-1.67,3.65-3.6,3.81-2.82.25-6.83.27-8,.27-1,0-7.56-.2-9.92-.38a3.1,3.1,0,0,0-2.42,1,6.76,6.76,0,0,0-1.6,3.33l-.34,1.79L172,69c2.29.27,10.59.62,12,.63,2.09,0,3.46,0,5.75-.06l4.1-.11c5.26-.12,8.21-4.38,9.21-8.32,0,0,.44-1.83.44-1.83v0a14.69,14.69,0,0,0,.3-2.25,7.76,7.76,0,0,0-.7-3.9c-.91-1.79-2.64-2.84-5.13-3.11-4.55-.48-14.93-1.62-16.12-1.8a2,2,0,0,1-1.59-.87,1.22,1.22,0,0,1-.11-.61,1.55,1.55,0,0,1,0-.32c.3-1.58.84-2.46,2.76-2.62s6.93-.26,9.09-.26l3.66,0,5.24.06c1.83,0,3.43-1.72,3.91-4.13l.38-1.89-1.42-.08c-1.92-.09-8-.28-10.71-.28S187.28,37.34,182.15,37.53Z"/><path class="cls-1" d="M129.62,27.55h-.3c-3.74,0-6.38,2.54-7.24,7l-3.67,18.83c-.33,1.71-1.07,5.27-1.5,6.59a5.51,5.51,0,0,1-1.27,2.43,3.21,3.21,0,0,1-2,1,66.72,66.72,0,0,1-7.07.28,62.61,62.61,0,0,1-7-.28c-.84-.2-1.14-.37-1.4-.83A3.65,3.65,0,0,1,98,60.41c.09-1.4.81-5.31,1.06-6.56s1-5.17,1.5-6.59a5.46,5.46,0,0,1,1.27-2.43,3.27,3.27,0,0,1,2-1,58.62,58.62,0,0,1,7.07-.28h.69a3.06,3.06,0,0,0,2.27-1.09,6.21,6.21,0,0,0,1.5-3.07l.36-1.84-2.09-.19a14,14,0,0,0-1.87-.08c-2,0-6.86.09-8.86.23a8.68,8.68,0,0,0-6.14,3,14.19,14.19,0,0,0-3.65,7.13l-.37,1.56c-.33,1.34-.52,2.14-.91,4.14s-.51,2.81-.71,4.15l-.23,1.57c-.49,3.22-.22,5.38,1,7.44A5.77,5.77,0,0,0,97,69.69c1.9.14,6.76.23,8.77.23s6.9-.09,8.86-.23a8.67,8.67,0,0,0,6.14-3,14.14,14.14,0,0,0,3.64-7.13s.37-1.56.37-1.56c.34-1.36.53-2.17.91-4.15l5.11-26.29Z"/><path class="cls-1" d="M169.76,27.55h-.31c-3.74,0-6.38,2.54-7.24,7l-3.66,18.83c-.34,1.71-1.08,5.27-1.51,6.59a5.41,5.41,0,0,1-1.27,2.43,3.21,3.21,0,0,1-2,1,66.61,66.61,0,0,1-7.07.28,62.29,62.29,0,0,1-6.95-.28c-.84-.2-1.15-.37-1.41-.83a3.65,3.65,0,0,1-.25-2.14c.1-1.4.82-5.31,1.07-6.56s1-5.17,1.49-6.59a5.56,5.56,0,0,1,1.27-2.43,3.27,3.27,0,0,1,2-1,58.4,58.4,0,0,1,7.07-.28h.68A3.06,3.06,0,0,0,154,42.45a6.31,6.31,0,0,0,1.51-3.07l.36-1.84-2.1-.19a14,14,0,0,0-1.87-.08c-2,0-6.85.09-8.86.23a8.66,8.66,0,0,0-6.13,3,14.2,14.2,0,0,0-3.66,7.13l-.38,1.56c-.32,1.34-.51,2.14-.9,4.14s-.51,2.81-.71,4.15L131,59.07c-.49,3.22-.21,5.38,1,7.44a5.78,5.78,0,0,0,5.16,3.18c1.9.14,6.76.23,8.77.23s6.9-.09,8.86-.23a8.63,8.63,0,0,0,6.13-3,14.16,14.16,0,0,0,3.66-7.13s.37-1.56.37-1.56c.33-1.36.52-2.16.91-4.15l5.11-26.29Z"/><path class="cls-1" d="M55.22,63.27c-.84-.22-1.15-.39-1.4-.84a3.4,3.4,0,0,1-.25-2.13c.08-1.3,1.34-8.08,1.91-11,.38-2,2.06-10.42,2.53-11.87A5.7,5.7,0,0,1,59.28,35a3.23,3.23,0,0,1,2-1c1.09-.23,7.49-.29,9.1-.29,2.3,0,8.08.07,9,.29.74.17,1.11.33,1.39.83A3.63,3.63,0,0,1,81,37c-.08,1.29-1.47,8.68-2.08,11.85-.36,1.84-1.9,9.56-2.36,11a5.68,5.68,0,0,1-1.27,2.43,3.34,3.34,0,0,1-2,1c-1.09.22-7.5.27-9.1.27C62,63.54,56.1,63.46,55.22,63.27Zm5.1-35.57Zm0,0a8.72,8.72,0,0,0-6.13,3,14.11,14.11,0,0,0-3.65,7.13l-.38,1.56c-.33,1.36-1.58,7.6-1.93,9.42S46.87,56,46.66,57.38L46.43,59c-.49,3.23-.21,5.38,1,7.43a5.78,5.78,0,0,0,5.16,3.19c1.9.14,8.78.23,10.79.23s8.93-.09,10.88-.23a8.65,8.65,0,0,0,6.13-3A14.09,14.09,0,0,0,84,59.43l.38-1.56c.32-1.36,1.38-6.6,1.76-8.54s1.53-8.07,1.73-9.44l.23-1.54c.49-3.24.21-5.4-1-7.46A5.78,5.78,0,0,0,82,27.7c-1.88-.13-8.77-.22-10.79-.22S62.26,27.57,60.32,27.7Z"/><path class="cls-1" d="M262.84,27.55h-1.1A7.36,7.36,0,0,0,256.49,30a9.57,9.57,0,0,0-2.05,3.45,8.12,8.12,0,0,0-.34,1.31L253.47,38l-2.76,14c-.52,2.7-.78,4.39-1.17,6.91-.49,3.23-.21,5.39,1,7.44a5.76,5.76,0,0,0,5.15,3.2c2,.14,8.67.22,10.53.22l1.89,0c1.79,0,3.41-1.91,3.87-4.38l.08-.45.28-1.5h-5.25c-2.9,0-7.85,0-8.74-.17s-1.13-.37-1.4-.83a3.16,3.16,0,0,1-.26-1.85c0-.09,0-.18,0-.28.09-1.38,1-6.2,1.28-7.78l1.76-9h12.84l1.2-6.16H260.92Z"/><text class="cls-3" transform="translate(4.79 111.35)">Udbydes af Danske Licens Spil<tspan class="cls-4" x="373.7" y="0"> </tspan><tspan x="379.73" y="0">A/S</tspan></text></svg>