<svg id="Layer_1" data-name="Layer 1" xmlns="http://www.w3.org/2000/svg" viewBox="0 0 492 492"><defs><style>.cls-1{fill:#6a6a6a;}</style></defs><title>puck</title><path class="cls-1" d="M395.22,95.78C304.87,5.32,182.06-19.09,121.4,41.38l-.08,0-80.92,81C-20.14,182.92,4.24,305.78,94.73,396.27c56.83,56.83,126.44,87.57,185.38,87.57,34.86,0,66-10.76,88.48-33.23,0,0,0,0,0,0L448,371.08l.11-.09.29-.3,1.15-1.16,0,0C510,308.87,485.65,186.09,395.22,95.78ZM374.3,116.7c78.93,78.83,103.3,182.88,54.33,231.94h0l-1.2,1.2A74.85,74.85,0,0,1,408.85,363c-54.91,28.32-144.18-.54-212.23-68.62-39.07-39-65.91-85.29-75.58-130.35-9.17-42.71-1.61-78.82,21.22-101.66,17.16-17.13,41-25.3,68.21-25.3C261,37.07,323,65.35,374.3,116.7ZM115.64,375.36c-70-70-97-159.64-68.1-213.24-.12,2.18-.33,6.5-.36,8.73C47.08,179,53.61,188,61.79,188H62c8.08,0,14.69-8.66,14.79-16.77.23-17.92,4.13-35,11.31-48.46a180.59,180.59,0,0,0,4,48c10.86,50.55,40.53,101.81,83.59,144.79,56.59,56.61,125.39,88,184.49,88,3,0,5.87-.36,8.81-.53-22.94,12-53.29,14.42-86.78,6.36a14.78,14.78,0,0,0-6.94,28.74,191.12,191.12,0,0,0,44.64,5.52c3.09,0,6.12-.2,9.15-.37C275.46,472.33,185.69,445.39,115.64,375.36Z"/></svg>