<svg id="Layer_1" data-name="Layer 1" xmlns="http://www.w3.org/2000/svg" viewBox="0 0 492 492"><defs><style>.cls-1{fill:#fff;}</style></defs><title>search</title><path class="cls-1" d="M478.14,456.92,363.3,342.08A200.64,200.64,0,0,0,412.76,210c0-111.17-90.43-201.49-201.49-201.49S9.78,98.89,9.78,210s90.42,201.5,201.49,201.5A200.63,200.63,0,0,0,343.39,362L458.23,476.83a14.28,14.28,0,0,0,10,4.19,13.79,13.79,0,0,0,9.95-4.19A14.17,14.17,0,0,0,478.14,456.92ZM38,210c0-95.55,77.75-173.2,173.2-173.2S384.36,114.5,384.36,210s-77.64,173.31-173.2,173.31S38,305.51,38,210Z"/></svg>