<svg id="Layer_1" data-name="Layer 1" xmlns="http://www.w3.org/2000/svg" viewBox="0 0 492 492"><defs><style>.cls-1{fill:#7b7b7b;}</style></defs><title>tennis</title><path class="cls-1" d="M412,73.84A240.65,240.65,0,0,0,227.85,7.09h-.07a5,5,0,0,0-.54.07l-.47,0A235.32,235.32,0,0,0,86.94,65.8c-4.3,3.49-8.13,7.21-12,11A239.76,239.76,0,0,0,5.24,228.36c0,.12-.1.25-.12.38s-.16.37-.16.56v.14c0,66.15,18,131.94,62.3,179.94,2.35,2.82,4.95,5.41,7.4,7.87a240.05,240.05,0,0,0,170,70.59c6,0,12-.23,17.93-.66a.43.43,0,0,0,.17,0A238.91,238.91,0,0,0,415,417.85a134.54,134.54,0,0,0,10.83-11.69A236.23,236.23,0,0,0,485.08,266c0-.11.25-.22.26-.34s.3-.39.3-.6v0c0-69.79-20.43-138.28-69.87-187.82C414.63,76,413.25,74.88,412,73.84ZM392.22,97.29a18.11,18.11,0,0,1,1.57,1.49,209.78,209.78,0,0,1,61.33,150.28,210,210,0,0,1-145.39-56.89c-1.72-1.53-3.25-3.09-4.79-4.61A209.48,209.48,0,0,1,243.68,37.21a209.6,209.6,0,0,1,147.4,59.06C391.45,96.63,391.82,97,392.22,97.29ZM96.39,395.57c-1.83-1.83-3.76-3.73-6-6.4-36-39-55.48-90.82-55-143.86a209.94,209.94,0,0,1,150,61.66,37,37,0,0,1,2.77,2.94c.29.36.59.69.9,1A209.61,209.61,0,0,1,246.67,457.1,209.41,209.41,0,0,1,96.39,395.57Zm306-9.26a107.17,107.17,0,0,1-8.95,9.66,208.43,208.43,0,0,1-116.16,58.66,240.3,240.3,0,0,0-65.61-164.41,66.9,66.9,0,0,0-4.65-5A240.31,240.31,0,0,0,37.67,214.65a209.1,209.1,0,0,1,58.8-116c3.23-3.14,6.36-6.2,10.28-9.4A205.34,205.34,0,0,1,213,39.54a240.1,240.1,0,0,0,70.21,169.71c1.94,1.94,3.88,3.87,5.76,5.55a240.47,240.47,0,0,0,163.7,65A206.44,206.44,0,0,1,402.43,386.31Z"/></svg>